<?xml version="1.0" encoding="UTF-8" standalone="no"?>
<!-- Created with Inkscape (http://www.inkscape.org/) -->

<svg
   version="1.1"
   id="svg3040"
   width="800"
   height="800"
   viewBox="0 0 800 800"
   sodipodi:docname="rose.svg"
   inkscape:version="1.4 (e7c3feb1, 2024-10-09)"
   xmlns:inkscape="http://www.inkscape.org/namespaces/inkscape"
   xmlns:sodipodi="http://sodipodi.sourceforge.net/DTD/sodipodi-0.dtd"
   xmlns="http://www.w3.org/2000/svg"
   xmlns:svg="http://www.w3.org/2000/svg">
  <defs
     id="defs3044">
    <clipPath
       clipPathUnits="userSpaceOnUse"
       id="clipPath3056">
      <path
         d="M 0,600 H 600 V 0 H 0 Z"
         id="path3054" />
    </clipPath>
  </defs>
  <sodipodi:namedview
     id="namedview3042"
     pagecolor="#ffffff"
     bordercolor="#000000"
     borderopacity="0.25"
     inkscape:showpageshadow="2"
     inkscape:pageopacity="0.0"
     inkscape:pagecheckerboard="0"
     inkscape:deskcolor="#d1d1d1"
     showgrid="false"
     inkscape:zoom="0.523125"
     inkscape:cx="197.84946"
     inkscape:cy="407.16846"
     inkscape:window-width="1512"
     inkscape:window-height="945"
     inkscape:window-x="0"
     inkscape:window-y="37"
     inkscape:window-maximized="0"
     inkscape:current-layer="g3050">
    <inkscape:page
       x="0"
       y="0"
       id="page3046"
       width="800"
       height="800"
       margin="0"
       bleed="0" />
  </sodipodi:namedview>
  <g
     id="g3048"
     inkscape:groupmode="layer"
     inkscape:label="Page 1"
     transform="matrix(1.3333333,0,0,-1.3333333,0,800)">
    <g
       id="g3050"
       transform="matrix(0.99409145,0,0,1,0.40410053,0)">
      <g
         id="g3052"
         clip-path="url(#clipPath3056)"
         style="fill:#ffcc00"
         transform="matrix(1.7814081,0,0,1.2139279,-18.829372,-37.354745)">
        <g
           id="g3058"
           transform="translate(202.293,174.0254)"
           style="fill:#ffcc00">
          <path
             d="m 0,0 c 14.877,-11.528 50.217,-21.612 50.322,-18.03 -4.148,2.656 -7.568,5.598 -10.517,8.728 -0.281,-0.431 -0.535,-0.884 -0.731,-1.373 -0.506,-1.21 -0.7,-2.584 -0.602,-3.978 -0.218,0.659 -0.417,1.347 -0.49,2.064 -0.099,0.715 -0.088,1.451 -0.005,2.189 0.081,0.738 0.259,1.473 0.519,2.188 0.031,0.081 0.064,0.159 0.095,0.238 -1.805,2.036 -3.431,4.142 -4.942,6.295 -0.236,-0.471 -0.457,-0.952 -0.645,-1.448 -0.559,-1.483 -0.852,-3.091 -0.705,-4.741 -0.519,1.568 -0.621,3.31 -0.394,5.008 0.113,0.849 0.292,1.695 0.535,2.526 0.029,0.095 0.064,0.186 0.093,0.279 -1.647,2.458 -3.17,4.966 -4.663,7.49 C 27.796,7.21 27.71,6.988 27.641,6.764 27.231,5.423 26.91,4.052 26.687,2.66 26.485,1.267 26.401,-0.144 26.458,-1.561 c 0.088,-1.415 0.36,-2.819 0.834,-4.183 -0.646,1.286 -1.115,2.676 -1.395,4.114 -0.25,1.441 -0.356,2.911 -0.336,4.385 0.04,1.47 0.186,2.939 0.429,4.396 0.148,0.863 0.331,1.709 0.542,2.559 -1.349,2.3 -2.697,4.604 -4.115,6.881 -0.568,-1.256 -1.112,-2.536 -1.599,-3.83 -0.693,-1.873 -1.312,-3.78 -1.773,-5.723 -0.466,-1.94 -0.789,-3.923 -0.806,-5.919 0.003,-1.975 0.298,-4.04 1.436,-5.743 -1.296,1.59 -1.812,3.688 -2.001,5.72 -0.174,2.052 -0.032,4.121 0.26,6.153 0.287,2.037 0.738,4.045 1.27,6.029 0.512,1.874 1.095,3.703 1.791,5.55 -2.494,3.83 -5.259,7.563 -8.635,11.065 C 11.794,28.26 11.269,26.589 10.812,24.909 10.254,22.832 9.77,20.73 9.428,18.606 9.085,16.484 8.864,14.335 8.934,12.188 9.022,10.061 9.335,7.843 10.556,6.014 9.175,7.732 8.646,9.98 8.371,12.143 c -0.263,2.189 -0.227,4.403 -0.066,6.595 0.16,2.197 0.467,4.376 0.851,6.542 0.39,2.143 0.846,4.247 1.425,6.383 -2.999,2.854 -6.468,5.53 -10.607,7.953 -0.604,-1.72 -1.161,-3.49 -1.644,-5.265 -0.558,-2.078 -1.042,-4.179 -1.384,-6.303 -0.342,-2.122 -0.564,-4.272 -0.493,-6.42 0.087,-2.126 0.4,-4.344 1.622,-6.173 -1.382,1.719 -1.911,3.966 -2.186,6.129 -0.263,2.189 -0.227,4.403 -0.066,6.596 0.16,2.195 0.468,4.376 0.852,6.542 0.366,2.013 0.8,3.996 1.33,5.999 -3.412,1.837 -7.251,3.512 -11.623,4.984 C -18.838,22.742 -14.35,11.12 0,0 m 44.188,-6.387 c -0.178,-0.001 -0.353,-0.019 -0.53,-0.028 5.035,-7.084 9.689,-11.839 14.674,-11.605 0.698,0.031 1.005,0.932 0.477,1.388 -2.496,2.153 -7.022,8.851 -7.685,29.26 C 49.892,50.532 12.053,52.86 -7.931,49.375 -8.764,49.229 -8.811,48.069 -8,47.828 c 3.769,-1.123 7.285,-2.729 10.583,-4.696 1.785,0.396 3.536,0.697 5.314,0.959 1.798,0.261 3.603,0.465 5.416,0.573 1.812,0.109 3.629,0.161 5.44,0.03 1.806,-0.129 3.618,-0.376 5.32,-0.967 -1.755,0.41 -3.552,0.462 -5.327,0.402 -1.78,-0.058 -3.55,-0.297 -5.303,-0.588 C 11.688,43.249 9.949,42.864 8.227,42.427 7.172,42.157 6.121,41.86 5.078,41.55 c 3.597,-2.424 6.924,-5.276 10.023,-8.4 0.901,0.177 1.802,0.344 2.71,0.498 1.948,0.333 3.909,0.599 5.877,0.785 1.966,0.192 3.944,0.297 5.92,0.236 1.968,-0.067 3.963,-0.24 5.825,-0.883 -1.912,0.46 -3.88,0.437 -5.814,0.318 -1.939,-0.126 -3.864,-0.415 -5.771,-0.79 -1.908,-0.369 -3.801,-0.813 -5.675,-1.323 -0.509,-0.137 -1.017,-0.29 -1.527,-0.435 2.78,-2.952 5.372,-6.109 7.812,-9.346 1.179,0.226 2.355,0.43 3.541,0.604 1.798,0.26 3.603,0.464 5.416,0.574 1.812,0.108 3.629,0.161 5.44,0.029 1.806,-0.128 3.618,-0.375 5.32,-0.968 -1.755,0.41 -3.551,0.463 -5.327,0.404 -1.78,-0.058 -3.549,-0.297 -5.303,-0.589 -1.754,-0.291 -3.493,-0.676 -5.216,-1.114 -0.856,-0.218 -1.716,-0.451 -2.567,-0.697 1.862,-2.545 3.633,-5.126 5.331,-7.683 0.429,0.063 0.856,0.133 1.288,0.189 1.546,0.189 3.098,0.314 4.65,0.355 3.098,0.061 6.247,-0.201 9.145,-1.233 -3.001,0.666 -6.067,0.532 -9.05,0.105 -1.494,-0.224 -2.973,-0.529 -4.434,-0.895 -0.175,-0.045 -0.351,-0.099 -0.527,-0.145 1.822,-2.782 3.562,-5.518 5.238,-8.136 1.004,0.036 2.007,0.032 3.002,-0.047 2.447,-0.168 4.847,-0.714 7.09,-1.565 -2.353,0.49 -4.744,0.643 -7.087,0.434 -0.7,-0.055 -1.392,-0.149 -2.081,-0.263 1.496,-2.327 2.944,-4.544 4.36,-6.593 0.543,-0.054 1.081,-0.127 1.605,-0.236 0.891,-0.171 1.754,-0.42 2.603,-0.685 0.845,-0.281 1.671,-0.599 2.485,-0.934 -0.869,0.154 -1.735,0.288 -2.603,0.38 -0.868,0.078 -1.733,0.135 -2.589,0.112 m -67.669,57.991 c -6.641,-2.236 -12.472,-4.781 -17.654,-7.571 0.805,-3.043 1.464,-6.054 2.021,-9.112 0.583,-3.29 1.05,-6.603 1.293,-9.938 0.245,-3.33 0.3,-6.692 -0.099,-10.018 -0.418,-3.285 -1.223,-6.699 -3.321,-9.31 1.856,2.778 2.331,6.147 2.464,9.376 0.107,3.263 -0.23,6.529 -0.75,9.752 -0.519,3.226 -1.255,6.418 -2.101,9.573 -0.736,2.698 -1.58,5.386 -2.498,7.998 -6.287,-3.679 -11.556,-7.746 -16.112,-12.081 0.879,-3.242 1.572,-6.439 2.164,-9.694 0.584,-3.29 1.05,-6.601 1.294,-9.936 0.244,-3.331 0.299,-6.694 -0.1,-10.02 -0.418,-3.285 -1.222,-6.698 -3.32,-9.309 1.855,2.778 2.33,6.146 2.464,9.375 0.107,3.264 -0.23,6.53 -0.75,9.753 -0.519,3.226 -1.255,6.417 -2.102,9.574 -0.695,2.55 -1.493,5.089 -2.352,7.57 -5.128,-5.321 -9.329,-10.989 -13.117,-16.808 1.058,-2.804 1.943,-5.584 2.722,-8.429 0.808,-3.015 1.492,-6.064 1.928,-9.159 0.444,-3.086 0.658,-6.228 0.395,-9.347 -0.287,-3.086 -1.071,-6.274 -3.04,-8.689 1.729,2.587 2.178,5.723 2.182,8.725 -0.027,3.032 -0.516,6.043 -1.224,8.991 -0.7,2.951 -1.64,5.847 -2.695,8.692 -0.738,1.966 -1.565,3.911 -2.429,5.818 -2.153,-3.461 -4.199,-6.959 -6.248,-10.452 0.319,-1.29 0.597,-2.577 0.822,-3.887 0.37,-2.212 0.591,-4.445 0.652,-6.679 0.03,-2.236 -0.131,-4.471 -0.51,-6.659 -0.426,-2.185 -1.138,-4.296 -2.119,-6.25 0.719,2.072 1.132,4.205 1.266,6.354 0.087,2.153 -0.041,4.296 -0.349,6.412 -0.338,2.114 -0.826,4.196 -1.448,6.234 -0.105,0.341 -0.235,0.678 -0.348,1.019 -2.267,-3.832 -4.581,-7.643 -7.083,-11.376 0.044,-0.143 0.098,-0.281 0.141,-0.425 0.369,-1.262 0.642,-2.546 0.813,-3.837 0.344,-2.577 0.191,-5.224 -0.598,-7.607 0.223,2.506 -0.222,4.949 -1.071,7.202 -0.285,0.755 -0.621,1.483 -0.98,2.199 -2.295,-3.271 -4.765,-6.47 -7.506,-9.561 0.047,-0.121 0.097,-0.238 0.143,-0.362 0.396,-1.086 0.666,-2.203 0.788,-3.325 0.127,-1.119 0.144,-2.237 -0.007,-3.324 -0.11,-1.088 -0.413,-2.134 -0.744,-3.136 0.15,2.119 -0.146,4.206 -0.915,6.043 -0.296,0.742 -0.683,1.432 -1.11,2.087 -4.48,-4.755 -9.674,-9.225 -15.975,-13.258 0.16,-5.442 53.84,9.875 76.438,27.388 21.797,16.89 28.616,34.543 20.685,69.424 m -91.739,-79.296 c -1.317,-0.141 -2.634,-0.343 -3.953,-0.578 1.236,0.509 2.491,0.992 3.775,1.418 1.29,0.404 2.6,0.782 3.954,1.041 0.797,0.166 1.612,0.277 2.439,0.357 2.149,3.114 4.349,6.481 6.622,10.016 -1.047,0.173 -2.099,0.317 -3.161,0.4 -3.56,0.316 -7.192,0.085 -10.766,-0.658 3.408,1.292 7.054,2.121 10.77,2.376 1.511,0.119 3.035,0.126 4.561,0.07 2.545,3.978 5.187,8.134 7.956,12.358 -0.268,0.072 -0.535,0.154 -0.802,0.222 -2.218,0.556 -4.465,1.019 -6.734,1.359 -4.532,0.648 -9.189,0.852 -13.747,-0.159 4.402,1.568 9.185,1.964 13.89,1.87 2.359,-0.06 4.716,-0.249 7.063,-0.538 0.658,-0.083 1.307,-0.19 1.957,-0.287 2.581,3.886 5.271,7.806 8.099,11.672 -1.293,0.374 -2.599,0.726 -3.899,1.059 -2.617,0.664 -5.259,1.249 -7.924,1.691 -2.664,0.442 -5.352,0.806 -8.054,0.894 -2.699,0.09 -5.428,0.011 -8.093,-0.612 2.586,0.9 5.338,1.276 8.081,1.47 2.751,0.2 5.512,0.119 8.263,-0.045 2.755,-0.165 5.497,-0.475 8.227,-0.871 1.801,-0.265 3.588,-0.575 5.38,-0.918 3.706,4.918 7.643,9.714 11.865,14.196 -0.774,0.222 -1.545,0.453 -2.319,0.662 -2.847,0.775 -5.723,1.45 -8.62,2.008 -2.897,0.568 -5.821,1.009 -8.766,1.2 -2.937,0.181 -5.927,0.216 -8.832,-0.482 2.828,0.977 5.859,1.238 8.848,1.341 3.002,0.094 6.007,-0.067 8.993,-0.359 2.989,-0.282 5.967,-0.684 8.927,-1.19 1.378,-0.235 2.747,-0.488 4.116,-0.758 4.707,4.745 9.761,9.077 15.225,12.759 -1.583,0.473 -3.182,0.923 -4.783,1.333 -2.616,0.664 -5.258,1.249 -7.923,1.691 -2.664,0.443 -5.352,0.806 -8.055,0.894 -2.697,0.09 -5.426,0.012 -8.092,-0.611 2.586,0.899 5.338,1.275 8.081,1.469 2.751,0.2 5.512,0.121 8.263,-0.045 2.754,-0.165 5.496,-0.475 8.227,-0.871 2.702,-0.397 5.36,-0.854 8.072,-1.457 5.01,2.988 10.35,5.428 16.075,7.134 1.231,0.366 1.161,2.129 -0.104,2.35 -30.356,5.294 -87.832,1.759 -89.703,-55.819 -1.008,-31.001 -7.883,-41.174 -11.674,-44.445 -0.803,-0.693 -0.336,-2.06 0.724,-2.111 7.573,-0.353 14.641,6.87 22.29,17.631 -0.27,0.012 -0.535,0.041 -0.806,0.045 -1.299,0.032 -2.613,-0.054 -3.933,-0.172 M 14.954,53.751 c 29.391,-5.08 41.654,22.331 45.957,38.649 4.303,16.319 17.598,11.165 20.175,24.909 2.577,13.741 -10.351,28.132 -15.889,36.93 C 56.762,167.638 53.148,116.854 46.731,97.768 40.499,79.231 28.435,65.068 -2.229,71.573 -16.399,74.579 -14.438,58.832 14.954,53.751 m -81.593,36.502 c 12.641,6.445 54.312,-18.465 79.649,-12.883 25.336,5.583 38.875,53.68 35.868,62.362 -3.005,8.684 -13.675,-26.503 -35.802,-39.817 -22.127,-13.311 -37.953,-3.857 -77.237,7.937 -18.565,5.571 -24.379,-28.764 -2.478,-17.599 m -61.794,62.268 c -3.438,-22.94 6.397,-69.138 42.47,-84.598 36.072,-15.46 42.084,9.447 62.697,-7.73 20.613,-17.177 2.578,25.851 -25.707,22.76 -28.871,-3.155 -37.634,-13.312 -41.285,25.867 -1.993,21.398 -36.988,51.62 -38.175,43.701 m 72.53,-37.576 c 16.748,-12.091 43.079,-19.539 62.149,-9.615 14.319,7.451 3.125,48.05 -6.323,34.402 -9.447,-13.647 -32.152,-25.919 -60.335,-11.259 -8.118,4.223 -8.951,-3.809 4.509,-13.528 m 32.637,57.33 c 10.546,1.856 10.521,-12.669 14.486,-14.171 3.965,-1.503 3.335,9.232 0,13.742 -3.335,4.508 -11.887,7.173 -15.989,3.65 -4.484,-3.851 -9.043,-5.077 1.503,-3.221 m 8.883,6.012 c 9.161,0.573 14.306,-11.165 9.362,-22.33 -4.943,-11.166 -11.661,0 -10.515,3.435 1.145,3.436 -5.153,8.875 -11.164,7.443 -6.01,-1.431 -2.292,-8.016 0,-14.314 2.292,-6.298 23.188,-9.734 29.5,3.436 6.312,13.169 -8.863,26.09 -14.686,27.054 -5.31,0.878 -11.658,-5.297 -2.497,-4.724 m -3.945,14.923 c -14.609,-1.185 -30.06,-11.203 -28.772,-24.689 1.288,-13.486 -6.449,-36.556 3.937,-37.174 10.386,-0.618 31.921,1.18 30.203,8.385 -1.718,7.206 -19.324,-5.677 -21.472,13.648 -2.147,19.325 3.866,34.679 18.036,32.102 14.172,-2.576 13.958,9.016 -1.932,7.728 m -60.854,26.22 c 1.459,4.297 -0.981,6.735 -5.153,4.949 -22.109,-9.459 -49.989,-27.161 -48.096,-39.65 2.147,-14.172 33.925,-42.849 48.526,-65.274 14.6,-22.426 15.888,12.024 -0.43,26.625 -16.318,14.6 -23.476,44.231 -9.447,54.108 6.652,4.684 12.885,14.19 14.6,19.242 m 16.408,-6.216 c -24.639,-13.164 -40.367,-33.496 -24.621,-52.391 15.746,-18.895 30.061,-33.782 33.782,-28.342 3.722,5.439 -33.209,39.221 -11.738,67.564 16.872,22.27 12.212,18.317 2.577,13.169 M 9.371,191.17 c -6.995,19.819 -35.669,39.11 -56.399,20.613 -19.45,-17.355 -23.688,-43.695 -9.627,-59.906 1.839,-2.12 4.024,-1.804 3.575,0.966 -2.716,16.748 -1.709,36.023 21.655,43.337 26.979,8.445 40.339,-11.44 40.796,-12.167 1.985,-3.16 1.717,2.29 0,7.157 m 3.705,-36.502 c -12.454,32.637 38.33,27.948 -11.055,61.444 -49.385,33.496 -64.894,4.318 -72.095,1.253 -2.476,-1.053 -3.323,1.825 -2.04,3.783 9.375,14.301 5.907,51.09 51.425,24.989 48.525,-27.825 58.194,-22.923 81.097,-37.81 C 83.312,193.44 49.998,159.592 37.499,139.853 21.395,114.421 26.618,119.177 13.076,154.668"
             style="fill:#ffcc00;fill-opacity:1;fill-rule:nonzero;stroke:none"
             id="path3060" />
        </g>
        <g
           id="g3062"
           transform="translate(543.6152,291.333)"
           style="fill:#ffcc00" />
        <g
           id="g3066"
           transform="translate(287.978,233.5498)"
           style="fill:#ffcc00">
          <path
             d="M 0,0 0.048,-0.022 Z"
             style="fill:#ffcc00;fill-opacity:1;fill-rule:nonzero;stroke:none"
             id="path3068" />
        </g>
      </g>
    </g>
  </g>
</svg>
